<svg
   viewBox="0 0 118 118"
   version="1.1"
   id="svg388"
   inkscape:version="1.2.1 (9c6d41e, 2022-07-14)"
   sodipodi:docname="coin_head.svg"
   xmlns:inkscape="http://www.inkscape.org/namespaces/inkscape"
   xmlns:sodipodi="http://sodipodi.sourceforge.net/DTD/sodipodi-0.dtd"
   xmlns="http://www.w3.org/2000/svg"
   xmlns:svg="http://www.w3.org/2000/svg">
  <g
     inkscape:label="Layer 1"
     inkscape:groupmode="layer"
     id="layer1">
    <path
       d="m 59.345862,102.61053 c 0,-1.58062 1.18512,-2.962771 2.7657,-3.161211 1.58062,-0.19706 2.96277,1.185121 3.16121,2.765711 0.19706,1.58062 -1.18512,2.96277 -2.76571,3.1612 h -0.19706 c -1.58062,0 -2.96414,-1.18512 -2.96414,-2.7657 z m -9.48232,1.97612 c -1.58062,-0.3955 -2.56864,-1.97612 -2.37024,-3.5553 0.3955,-1.580621 1.97612,-2.568641 3.55529,-2.370241 1.58062,0.3955 2.56865,1.976121 2.37025,3.555291 -0.19706,1.38356 -1.58063,2.37025 -2.96277,2.37025 -0.19706,0.19706 -0.3955,0 -0.59256,0 z m 21.13915,-3.55671 c -0.59256,-1.580621 0.19706,-3.161201 1.77768,-3.753911 1.58063,-0.5927 3.16121,0.19706 3.75391,1.77769 0.59256,1.580621 -0.19706,3.161201 -1.77768,3.753901 -0.3955,0.19706 -0.59256,0.19706 -0.98806,0.19706 -1.1865,0.001 -2.37162,-0.78962 -2.76571,-1.97474 z m -32.99283,-0.59256 c -1.38356,-0.789621 -1.97612,-2.568641 -1.18513,-3.950761 0.78963,-1.38356 2.56865,-1.97612 3.95076,-1.18512 1.38356,0.78962 1.97612,2.56865 1.18512,3.95076 -0.59256,0.988061 -1.58062,1.580621 -2.56864,1.580621 -0.59119,0 -0.98669,-0.19706 -1.38219,-0.3955 z m 43.85733,-4.147961 c -0.98806,-1.38356 -0.59256,-3.16121 0.59256,-4.14937 1.38356,-0.98806 3.16121,-0.59256 4.14937,0.59256 0.98806,1.38356 0.59256,3.16121 -0.78962,4.14937 -0.59256,0.3955 -1.18512,0.59256 -1.77768,0.59256 -0.59394,0 -1.582,-0.3955 -2.17456,-1.18512 z m -54.32778,-3.16121 c -1.18512,-1.18512 -1.18512,-2.96277 -0.19706,-4.14937 1.18512,-1.18512 2.96277,-1.18512 4.14938,-0.19706 1.18512,1.18513 1.18512,2.96277 0.19705,4.14938 -0.59256,0.59256 -1.38356,0.98806 -2.17318,0.98806 -0.59256,-0.001 -1.38356,-0.19844 -1.97612,-0.791 z m 63.61289,-4.34622 c -1.38356,-0.98806 -1.58062,-2.96277 -0.3955,-4.14937 0.98806,-1.18512 2.96277,-1.58062 4.14937,-0.3955 1.18512,0.98806 1.38356,2.96277 0.3955,4.14937 -0.59256,0.78962 -1.38356,0.98806 -2.37024,0.98806 -0.59394,0 -1.38356,-0.19706 -1.77906,-0.59256 z m -71.51511,-5.33435 c -0.78962,-1.38356 -0.3955,-3.16121 0.98806,-4.14937 1.38356,-0.78963 3.16121,-0.3955 4.14937,0.98806 0.78962,1.38356 0.3955,3.1612 -0.98806,4.14937 -0.3955,0.19706 -0.98806,0.3955 -1.58062,0.3955 -1.18512,0 -2.17318,-0.3955 -2.56864,-1.38356 z m 78.232,-4.34622 c -1.58062,-0.59256 -2.17318,-2.37025 -1.58062,-3.95076 0.59256,-1.58052 2.37024,-2.17318 3.950748,-1.58062 1.58063,0.59256 2.17319,2.37024 1.58063,3.95076 -0.3955,1.18512 -1.58063,1.77768 -2.765708,1.77768 -0.3955,0.001 -0.791,0.001 -1.18512,-0.19706 z m -83.36845,-7.30921 c -0.39549,-1.58062 0.3955,-3.1612 1.97612,-3.55529 1.58063,-0.3955 3.16121,0.3955 3.75391,1.97612 0.3955,1.58062 -0.3955,3.16121 -1.97612,3.75391 -0.19705,0 -0.59256,0.19706 -0.78962,0.19706 -1.38356,-0.19844 -2.57006,-0.98806 -2.96414,-2.37162 z m 87.319558,-3.95075 c -1.58062,-0.19706 -2.765708,-1.77769 -2.568648,-3.35827 0.19706,-1.58062 1.777688,-2.76571 3.358268,-2.56865 1.58059,0.19706 2.76571,1.77768 2.56865,3.35827 -0.19706,1.58062 -1.58062,2.56865 -2.96277,2.56865 -0.19844,0.19705 -0.19844,0 -0.3955,0 z m -89.097558,-8.4956 v 0 c 0,-1.77768 1.38356,-3.1612 2.96277,-3.1612 1.58062,0 2.96277,1.38355 2.96277,2.96276 0,1.58063 -1.38356,2.96277 -2.96277,2.96277 -1.57924,0.19982 -2.96277,-1.18374 -2.96277,-2.76433 z m 86.52934,-5.7284 c -0.19706,-1.58062 0.988058,-3.16121 2.568638,-3.35827 1.58062,-0.19706 3.16121,0.98806 3.35827,2.56864 0.19706,1.58062 -0.98806,3.16121 -2.56865,3.35827 h -0.39549 c -1.57925,0 -2.765708,-1.1865 -2.962768,-2.56864 z m -82.77578,-3.35827 c -1.58062,-0.3955 -2.56865,-1.97612 -1.97612,-3.75391 0.3955,-1.58062 1.97612,-2.56865 3.55529,-1.97612 1.58063,0.3955 2.56865,2.17318 1.97612,3.75391 -0.39549,1.38356 -1.58062,2.17318 -2.7657,2.17318 -0.19706,0 -0.59119,-0.19706 -0.78962,-0.19706 z m 79.81244,-7.31062 c -0.59256,-1.58062 0,-3.1612 1.58062,-3.95075 1.58062,-0.59256 3.358268,0 3.950758,1.58062 0.59256,1.58062 0,3.1612 -1.58062,3.95076 -0.395498,0.19705 -0.789618,0.19705 -1.185118,0.19705 -1.18512,10e-4 -2.37162,-0.59118 -2.76571,-1.77768 z m -75.86133,-3.95075 c -1.38356,-0.78963 -1.77768,-2.56865 -0.98806,-4.14938 0.78962,-1.38355 2.76571,-1.77768 4.14937,-0.98806 1.38356,0.78963 1.77769,2.76571 0.98806,4.14938 -0.59256,0.98806 -1.58062,1.38356 -2.56864,1.38356 -0.59256,0.19705 -0.98669,0 -1.58062,-0.3955 z m 70.13222,-5.53156 c -0.98806,-1.18512 -0.78962,-3.16121 0.3955,-4.14937 1.18512,-0.98817 3.16121,-0.78962 4.14937,0.3955 0.98817,1.18512 0.78963,3.1612 -0.3955,4.14937 -0.59256,0.3955 -1.18512,0.59256 -1.97612,0.59256 -0.78962,0.19706 -1.58062,-0.19706 -2.17318,-0.98806 z m -63.21777,-4.14796 c -1.18513,-1.18512 -0.98806,-2.96277 0.19705,-4.14937 1.18513,-1.18512 3.16121,-0.98806 4.14938,0.19706 1.18512,1.18512 0.98806,3.1612 -0.19706,4.14937 -0.59256,0.59256 -1.38356,0.78962 -1.97612,0.78962 -0.78962,0 -1.58062,-0.19706 -2.17318,-0.98668 z m 55.11799,-3.35827 c -1.38355,-0.98806 -1.58062,-2.76571 -0.78962,-4.14937 0.98806,-1.38356 2.76571,-1.58062 4.14937,-0.78962 1.38356,0.98806 1.58062,2.7657 0.78963,4.14937 -0.59256,0.78962 -1.58062,1.18512 -2.37025,1.18512 -0.59256,0.19706 -1.18512,-0.001 -1.77905,-0.3955 z m -46.03044,-3.95217 c -0.78962,-1.38356 -0.19706,-3.1612 1.18512,-3.95076 1.38356,-0.78962 3.16121,-0.19705 3.95076,1.18513 0.78962,1.38356 0.19706,3.1612 -1.18512,3.95075 -0.3955,0.19706 -0.98806,0.3955 -1.38356,0.3955 -0.98806,0 -1.97474,-0.59256 -2.56727,-1.58062 z m 36.15267,-0.98668 c -1.58062,-0.59256 -2.37025,-2.17318 -1.77769,-3.75391 0.59257,-1.58062 2.17319,-2.37024 3.75391,-1.77768 1.58062,0.59256 2.37025,2.17318 1.77769,3.75391 -0.3955,1.18512 -1.58063,1.97612 -2.76571,1.97612 -0.19706,-0.001 -0.59256,-0.19844 -0.98806,-0.19844 z m -25.28711,-3.75391 c -0.3955,-1.58062 0.59256,-3.16121 2.37024,-3.55529 1.58062,-0.3955 3.16121,0.78962 3.55529,2.37024 0.3955,1.58062 -0.78962,3.16121 -2.37024,3.55529 h -0.59256 c -1.38218,0 -2.56727,-0.98806 -2.96277,-2.37024 z m 14.61946,1.38218 c -1.58062,-0.19705 -2.96277,-1.58062 -2.76571,-3.1612 0,-1.58062 1.58062,-2.76571 3.16121,-2.76571 1.58062,0 2.96277,1.58062 2.76571,3.16121 -0.19844,1.58062 -1.38356,2.7657 -3.16121,2.7657 z"
       id="path504"
       style="stroke-width:0.352778" />
    <path
       d="m 59.148302,115.45164 c -31.01693,0 -56.3033298,-25.287111 -56.3033298,-56.303331 0,-31.01623 25.2871098,-56.3033404 56.3033298,-56.3033404 31.01622,0 56.303328,25.2871104 56.303328,56.3033404 0,31.01622 -25.287108,56.303331 -56.303328,56.303331 z m 0,-106.6800014 c -27.85569,0 -50.3766698,22.5213304 -50.3766698,50.3766704 0,27.85533 22.5213398,50.376661 50.3766698,50.376661 27.85533,0 50.376668,-22.521331 50.376668,-50.376661 0,-27.85534 -22.521338,-50.3766704 -50.376668,-50.3766704 z"
       id="path506"
       style="stroke-width:0.352778" />
    <path
       d="m 79.496522,63.099419 c 3.75391,-8.29734 4.93889,-16.79293 2.76571,-22.71819 -2.56865,-6.91515 -10.6673,-13.63168 -23.114,-12.64355 -0.19706,0 -22.52133,1.97612 -23.114,10.27324 -0.19706,2.56865 1.58062,4.54343 4.34622,5.92702 -0.98806,3.35827 -0.98806,6.51933 -0.78962,8.10013 l -4.34622,8.29733 c -0.3955,0.78963 -0.3955,1.58062 -0.19706,2.37025 0.19706,0.78962 0.78962,1.38356 1.58062,1.77768 l 2.96277,1.38356 c 0.19706,3.95076 -0.78962,8.29733 -0.78962,8.29733 -0.3955,1.58062 0.3955,2.96277 1.97612,3.5553 0.78962,0.19705 3.35826,0.78962 6.51933,0.78962 0.78962,0 1.77768,0 2.56864,-0.19706 0.3955,1.97612 0.59257,7.3092 0.78963,11.85404 0,1.18512 0.78962,2.37024 1.97612,2.76571 0.39274,-0.19844 0.58981,-0.19844 0.98531,-0.19844 0.78962,0 1.77768,-0.3955 2.37024,-0.98806 8.10013,-9.68058 22.9168,-13.63169 23.114,-13.82854 0.98806,-0.19706 1.77768,-0.98806 1.97612,-1.97612 0.3955,-0.98806 0.19706,-1.97612 -0.59256,-2.7657 0,10e-4 -3.55671,-4.54343 -0.98806,-10.07498 z m -19.75555,-29.63334 c 10.66729,-0.78962 15.80479,5.1361 16.98977,8.88965 1.58062,4.34622 0.59256,11.45822 -2.56864,18.17511 0,0.19706 0,0.19706 -0.19706,0.3955 l -1.97612,-0.78962 c 0.98806,-2.17318 1.18512,-4.34622 0.59256,-6.32248 -0.59256,-2.37025 -2.37024,-4.14938 -4.54342,-4.74169 -1.97612,-0.3955 -4.93889,-0.19706 -8.6928,3.35827 0.19706,-1.77768 0,-4.14937 -1.18512,-6.12387 -0.59256,-0.98806 -1.38356,-2.17318 -2.76571,-3.16121 2.56865,-0.59256 5.53156,-1.18512 8.49418,-0.78962 1.58062,0.19706 3.16121,-0.98806 3.35827,-2.56865 0.19706,-1.58062 -0.98806,-3.1612 -2.56864,-3.35826 -8.6928,-0.98806 -17.18698,3.35826 -17.58245,3.55529 0,0 -0.19706,0 -0.19706,0.19706 -2.56864,-0.78962 -3.95075,-1.38356 -4.54342,-1.77768 2.37162,-1.77631 10.07604,-4.34481 17.38524,-4.93748 z m -3.35827,49.38889 c -0.19706,-3.1612 -0.3955,-4.93889 -0.78962,-6.32248 2.56864,-1.18512 4.93888,-2.96277 6.51933,-5.72841 0.78962,-1.38356 0.19706,-3.1612 -1.38356,-3.95075 -1.38356,-0.78963 -3.16121,-0.19706 -3.95076,1.38355 -2.17318,4.14938 -8.10013,4.34623 -11.65542,3.95076 0.3955,-2.37024 0.59256,-5.92702 0.19705,-9.08826 -0.19705,-0.98806 -0.78962,-1.77768 -1.77768,-2.17318 l -1.58062,-0.78962 1.58062,-2.96277 h 4.14937 c 1.58063,0 2.96277,-1.38356 2.96277,-2.96277 0,-1.58062 -1.38356,-2.96277 -2.96277,-2.96277 h -2.17318 c 0,-1.18512 0,-3.1612 0.59256,-5.33435 1.18513,0.19706 2.17319,0.59256 3.35827,0.78962 1.77768,0.3955 2.96277,1.18512 3.75391,2.37024 0.98806,1.77769 0.3955,4.14938 0,4.93889 -0.59256,1.58062 0.19706,3.16121 1.58062,3.75391 l 3.95076,1.58062 c 1.18512,0.3955 2.56864,0.19706 3.35827,-0.78962 2.7657,-3.16121 4.34622,-3.55529 4.54342,-3.55529 0,0 0.19706,0.39549 0.19706,1.18512 0,0.78962 -0.3955,3.1612 -3.35827,5.7284 -1.18512,0.98806 -1.38356,2.96277 -0.19706,4.14937 0.59256,0.59257 1.38356,0.98806 2.17319,0.98806 0.59256,0 1.38355,-0.19705 1.97612,-0.78962 0.39549,-0.3955 0.78962,-0.59256 0.98806,-0.98806 l 3.95075,1.38356 c 0,2.56865 0.3955,4.93889 1.18513,6.51933 -3.95217,1.5765 -11.06417,4.73781 -17.1884,9.6767 z"
       id="path508"
       style="stroke-width:0.352778" />
  </g>
</svg>
