<svg
   viewBox="0 0 118 118"
   version="1.1"
   id="svg388"
   inkscape:version="1.2.1 (9c6d41e, 2022-07-14)"
   sodipodi:docname="coin_tail.svg"
   xmlns:inkscape="http://www.inkscape.org/namespaces/inkscape"
   xmlns:sodipodi="http://sodipodi.sourceforge.net/DTD/sodipodi-0.dtd"
   xmlns="http://www.w3.org/2000/svg"
   xmlns:svg="http://www.w3.org/2000/svg">
  <g
     inkscape:label="Layer 1"
     inkscape:groupmode="layer"
     id="layer1">
    <path
       d="m 73.694271,71.989411 c 0,-8.29733 -6.716529,-11.85403 -12.840399,-14.61946 v -18.57057 c 3.95076,0.78962 6.519329,2.7657 7.309199,3.95076 0.98806,1.38355 2.76571,1.58062 4.14937,0.78962 1.38356,-0.98806 1.58062,-2.76571 0.78963,-4.14937 -1.97612,-2.76571 -6.123869,-5.72841 -12.248099,-6.51934 l -10e-4,-7.30638 c 0,-1.58062 -1.38356,-2.96277 -2.96277,-2.96277 -1.58062,0 -2.96276,1.38356 -2.96276,2.96277 v 7.112 c -7.31062,1.18512 -12.84182,6.71654 -12.84182,13.63169 0,8.49418 6.71653,12.24809 12.8404,14.81666 v 18.37196 c -4.14937,-0.78962 -6.51933,-2.7657 -7.50746,-3.95075 -0.98806,-1.38356 -2.76571,-1.77769 -4.14937,-0.78963 -1.38356,0.98806 -1.77768,2.76571 -0.78962,4.14938 1.77768,2.7657 6.12387,5.92702 12.24809,6.71653 l 10e-4,7.110592 c 0,1.58062 1.38356,2.96277 2.96277,2.96277 1.58062,0 2.96277,-1.38356 2.96277,-2.96277 v -7.112002 c 7.508869,-1.18512 13.040429,-6.71654 13.040429,-13.63169 z M 48.011702,46.308251 c 0,-3.1612 2.56864,-6.51933 6.91515,-7.50746 v 15.80479 c -4.34622,-2.17318 -6.91515,-4.34622 -6.91515,-8.29733 z m 12.8404,33.18863 v -15.60618 c 4.34623,2.17318 6.915149,4.14937 6.915149,8.10013 0,3.15983 -2.568639,6.51827 -6.915149,7.50605 z"
       id="path70"
       style="stroke-width:0.352778" />
    <path
       d="m 58.087392,102.61053 c 0,-1.58063 1.18512,-2.962767 2.7657,-3.161207 1.58062,-0.19706 2.96277,1.185117 3.16121,2.765707 0.19706,1.58062 -1.18512,2.96277 -2.76571,3.1612 h -0.19706 c -1.58062,0 -2.96414,-1.18512 -2.96414,-2.7657 z m -9.48232,1.97612 c -1.58062,-0.3955 -2.56864,-1.97612 -2.37024,-3.5553 0.3955,-1.580617 1.97612,-2.568637 3.55529,-2.370237 1.58062,0.3955 2.56865,1.976117 2.37025,3.555287 -0.19706,1.38356 -1.58063,2.37025 -2.96277,2.37025 -0.19706,0.19705 -0.3955,0 -0.59256,0 z m 21.139149,-3.55671 c -0.59256,-1.580617 0.19706,-3.161207 1.77768,-3.753907 1.58063,-0.5927 3.16121,0.19706 3.75391,1.77768 0.59256,1.580617 -0.19706,3.161207 -1.77768,3.753907 -0.3955,0.19706 -0.59256,0.19706 -0.98806,0.19706 -1.1865,0.001 -2.37162,-0.78962 -2.76571,-1.97474 z m -32.992829,-0.59256 c -1.38356,-0.789617 -1.97612,-2.568647 -1.18513,-3.950757 0.78963,-1.38356 2.56865,-1.97612 3.95076,-1.18512 1.38356,0.78962 1.97612,2.56864 1.18512,3.95076 -0.59256,0.988057 -1.58062,1.580617 -2.56864,1.580617 -0.59119,0 -0.98669,-0.19706 -1.38219,-0.3955 z m 43.857329,-4.147957 c -0.98806,-1.38356 -0.59256,-3.16121 0.59256,-4.14937 1.38356,-0.98806 3.16121,-0.59256 4.14937,0.59256 0.98806,1.38356 0.59256,3.1612 -0.78962,4.14937 -0.59256,0.3955 -1.18512,0.59256 -1.77768,0.59256 -0.59394,0 -1.582,-0.3955 -2.17456,-1.18512 z m -54.327779,-3.16121 c -1.18512,-1.18512 -1.18512,-2.96277 -0.19706,-4.149372 1.18512,-1.18512 2.96277,-1.18512 4.14938,-0.19706 1.18512,1.185122 1.18512,2.962772 0.19705,4.149372 -0.59256,0.59256 -1.38356,0.98806 -2.17318,0.98806 -0.59256,-0.001 -1.38356,-0.19843 -1.97612,-0.79099 z m 63.612889,-4.346222 c -1.38356,-0.98806 -1.58062,-2.96277 -0.3955,-4.14937 0.98806,-1.18512 2.96277,-1.58062 4.14937,-0.3955 1.18512,0.98806 1.38356,2.96277 0.3955,4.14937 -0.59256,0.78962 -1.38356,0.98806 -2.37024,0.98806 -0.59394,0 -1.38356,-0.19706 -1.77906,-0.59256 z m -71.515109,-5.33435 c -0.78962,-1.38356 -0.3955,-3.16121 0.98806,-4.14938 1.38356,-0.78962 3.16121,-0.39549 4.14937,0.98806 0.78962,1.38356 0.3955,3.16121 -0.98806,4.14938 -0.3955,0.19706 -0.98806,0.3955 -1.58062,0.3955 -1.18512,0 -2.17318,-0.3955 -2.56864,-1.38356 z m 78.231999,-4.34623 c -1.58062,-0.59256 -2.17318,-2.37024 -1.58062,-3.95075 0.59256,-1.58052 2.37024,-2.17319 3.95075,-1.58062 1.580629,0.59256 2.173189,2.37024 1.580629,3.95075 -0.3955,1.18513 -1.580629,1.77769 -2.765709,1.77769 -0.3955,0.001 -0.791,0.001 -1.18512,-0.19706 z m -83.368449,-7.3092 c -0.39549,-1.58062 0.3955,-3.1612 1.97612,-3.55529 1.58063,-0.3955 3.16121,0.3955 3.75391,1.97612 0.3955,1.58062 -0.3955,3.1612 -1.97612,3.75391 -0.19705,0 -0.59256,0.19705 -0.78962,0.19705 -1.38356,-0.19843 -2.57006,-0.98806 -2.96414,-2.37161 z m 87.319558,-3.95076 c -1.580619,-0.19705 -2.765709,-1.77768 -2.568649,-3.35826 0.19706,-1.58062 1.77769,-2.76571 3.358269,-2.56865 1.58059,0.19706 2.76571,1.77768 2.56865,3.35827 -0.19706,1.58062 -1.58062,2.56864 -2.96277,2.56864 -0.19844,0.19706 -0.19844,0 -0.3955,0 z m -89.097558,-8.49559 v 0 c 0,-1.77768 1.38356,-3.16121 2.96277,-3.16121 1.58062,0 2.96277,1.38356 2.96277,2.96277 0,1.58062 -1.38356,2.96277 -2.96277,2.96277 -1.57924,0.19982 -2.96277,-1.18374 -2.96277,-2.76433 z m 86.529339,-5.72841 c -0.19706,-1.58062 0.98806,-3.1612 2.568639,-3.35826 1.58062,-0.19706 3.16121,0.98806 3.35827,2.56864 0.19706,1.58062 -0.98806,3.16121 -2.56865,3.35827 h -0.39549 c -1.579249,0 -2.765709,-1.1865 -2.962769,-2.56865 z m -82.775779,-3.35826 c -1.58062,-0.3955 -2.56865,-1.97612 -1.97612,-3.75391 0.3955,-1.58062 1.97612,-2.56865 3.55529,-1.97612 1.58063,0.3955 2.56865,2.17318 1.97612,3.75391 -0.39549,1.38356 -1.58062,2.17318 -2.7657,2.17318 -0.19706,0 -0.59119,-0.19706 -0.78962,-0.19706 z m 79.812439,-7.31062 c -0.59256,-1.58062 0,-3.1612 1.58062,-3.95076 1.58062,-0.59256 3.35827,0 3.950759,1.58063 0.59256,1.58062 0,3.1612 -1.580619,3.95075 -0.3955,0.19706 -0.78962,0.19706 -1.18512,0.19706 -1.18512,0.001 -2.37162,-0.59118 -2.76571,-1.77768 z m -75.861329,-3.95076 c -1.38356,-0.78962 -1.77768,-2.56864 -0.98806,-4.14937 0.78962,-1.38356 2.76571,-1.77768 4.14937,-0.98806 1.38356,0.78962 1.77769,2.76571 0.98806,4.14937 -0.59256,0.98806 -1.58062,1.38356 -2.56864,1.38356 -0.59256,0.19706 -0.98669,0 -1.58062,-0.3955 z m 70.132219,-5.53155 c -0.98806,-1.18512 -0.78962,-3.16121 0.3955,-4.14937 1.18512,-0.98817 3.16121,-0.78963 4.14937,0.3955 0.98817,1.18512 0.78963,3.1612 -0.3955,4.14937 -0.59256,0.3955 -1.18512,0.59256 -1.97612,0.59256 -0.78962,0.19706 -1.58062,-0.19706 -2.17318,-0.98806 z m -63.217769,-4.14796 c -1.18513,-1.18512 -0.98806,-2.96277 0.19705,-4.14937 1.18513,-1.18513 3.16121,-0.98806 4.14938,0.19705 1.18512,1.18513 0.98806,3.16121 -0.19706,4.14938 -0.59256,0.59256 -1.38356,0.78962 -1.97612,0.78962 -0.78962,0 -1.58062,-0.19706 -2.17318,-0.98669 z m 55.117989,-3.35827 c -1.38355,-0.98806 -1.58062,-2.76571 -0.78962,-4.14937 0.98806,-1.38356 2.76571,-1.58062 4.14937,-0.78962 1.38356,0.98806 1.58062,2.7657 0.78963,4.14937 -0.59256,0.78962 -1.58062,1.18512 -2.37025,1.18512 -0.59256,0.19706 -1.18512,-10e-4 -1.77905,-0.3955 z m -46.030439,-3.95217 c -0.78962,-1.38356 -0.19706,-3.16121 1.18512,-3.95076 1.38356,-0.78962 3.16121,-0.19706 3.95076,1.18512 0.78962,1.38356 0.19706,3.16121 -1.18512,3.95076 -0.3955,0.19706 -0.98806,0.3955 -1.38356,0.3955 -0.98806,0 -1.97474,-0.59256 -2.56727,-1.58062 z m 36.152669,-0.98668 c -1.58062,-0.59256 -2.37025,-2.17319 -1.77769,-3.75391 0.59257,-1.58062 2.17319,-2.37025 3.75391,-1.77768 1.58062,0.59256 2.37025,2.17318 1.77769,3.7539 -0.3955,1.18513 -1.58063,1.97612 -2.76571,1.97612 -0.19706,-0.001 -0.59256,-0.19843 -0.98806,-0.19843 z m -25.287109,-3.75391 c -0.3955,-1.58062 0.59256,-3.16121 2.37024,-3.5553 1.58062,-0.3955 3.16121,0.78963 3.55529,2.37025 0.3955,1.58062 -0.78962,3.1612 -2.37024,3.55529 h -0.59256 c -1.38218,0 -2.56727,-0.98806 -2.96277,-2.37024 z m 14.61946,1.38218 c -1.58062,-0.19706 -2.96277,-1.58062 -2.76571,-3.1612 0,-1.58063 1.58062,-2.76571 3.16121,-2.76571 1.58062,0 2.96277,1.58062 2.76571,3.1612 -0.19844,1.58063 -1.38356,2.76571 -3.16121,2.76571 z"
       id="path72"
       style="stroke-width:0.352778" />
    <path
       d="m 57.889832,115.45164 c -31.01693,0 -56.30333,-25.287107 -56.30333,-56.303339 0,-31.01622 25.28711,-56.3033296 56.30333,-56.3033296 31.016219,0 56.303328,25.2871096 56.303328,56.3033296 0,31.016232 -25.287109,56.303339 -56.303328,56.303339 z m 0,-106.6799986 c -27.85569,0 -50.37667,22.5213296 -50.37667,50.3766596 0,27.85534 22.52134,50.376669 50.37667,50.376669 27.855329,0 50.376668,-22.521329 50.376668,-50.376669 0,-27.85533 -22.521339,-50.3766596 -50.376668,-50.3766596 z"
       id="path74"
       style="stroke-width:0.352778" />
  </g>
</svg>
