<svg version="1.1" xmlns="http://www.w3.org/2000/svg" xmlns:xlink="http://www.w3.org/1999/xlink" x="0px" y="0px" viewBox="0 0 1000 1000" enable-background="new 0 0 1000 1000" xml:space="preserve">
<g><g transform="translate(0.000000,474.000000) scale(0.100000,-0.100000)"><path d="M2499.7,4282.5c-598.9-64-1207.6-383.8-1612.7-849c-440-504-684.2-1095.2-773.4-1860.8C34.2,876.8,307.5-84.6,799.8-825.1l137.6-209.3h564.1h564.1L2501.7-73c238.4,527.2,455.5,980.8,480.7,1007.9c62,62,180.3,64,240.4,1.9c27.1-25.2,232.6-513.7,525.3-1244.4c263.6-661,482.6-1203.7,484.6-1205.6c1.9-3.9,164.8,284.9,362.5,637.7c195.8,354.7,376,668.7,401.2,697.8c36.8,44.6,62,54.3,127.9,54.3c104.7,0,122.1-19.4,312.1-335.3c81.4-137.6,153.1-246.2,157-240.4c3.9,3.9,147.3,672.6,317.9,1488.7c170.6,814.1,319.8,1510,331.4,1542.9c40.7,129.9,186.1,162.8,286.9,69.8l58.2-54.3l267.5-1690.2l265.6-1692.2h975h973l131.8,199.6c486.5,734.6,759.8,1682.5,688.1,2393.9C9776.2,2681.4,9218,3580.8,8361.3,4018.8c-385.7,197.7-676.5,265.5-1122.3,265.5c-548.5,1.9-992.4-131.8-1449.9-434.2c-176.4-118.2-474.9-397.4-620.3-579.6c-120.2-153.1-124.1-157-201.6-157c-52.3,0-75.6,17.4-155.1,120.2c-366.3,476.8-757.9,765.6-1271.5,936.2C3230.5,4272.8,2821.5,4317.3,2499.7,4282.5z"/><path d="M6378.3,1225.7c-9.7-96.9-535-2529.5-550.5-2550.9c-60.1-75.6-164.8-102.7-244.2-58.2c-19.4,9.7-126,170.6-236.5,356.7c-110.5,188-207.4,341.1-215.2,341.1c-5.8,0-184.1-308.2-393.5-686.2c-209.3-378-399.3-701.7-420.6-721.1c-50.4-46.5-174.4-46.5-226.8,0c-21.3,19.4-236.5,533-507.9,1209.5c-257.8,647.4-474.9,1182.4-482.6,1192.1c-5.8,7.8-182.2-356.7-387.7-810.2c-207.4-453.6-393.5-839.3-412.9-858.7c-33-29.1-96.9-32.9-538.9-38.8l-502-5.8l33-48.5c19.4-27.1,833.5-773.4,1808.5-1659.2c975-885.8,1796.8-1632.1,1824-1657.3l48.5-44.6l1763.9,1570.1c969.2,864.5,1818.2,1630.2,1887.9,1701.9l126,129.9l-932.3,9.7c-880,9.7-936.2,11.6-975,46.5c-21.3,19.4-44.6,50.4-50.4,67.8c-3.9,17.4-96.9,585.4-203.5,1261.9C6411.3,1105.5,6382.2,1274.2,6378.3,1225.7z"/></g></g>
</svg>